{"asset":{"version":"2.0","generator":"babylon.js glTF exporter for Maya 2018 v20200225.2"},"scene":0,"scenes":[{"nodes":[0,1,2,3,4,5],"extensions":{}}],"nodes":[{"mesh":0,"name":"Raccoon_head_low","extras":{"currentUVSet":"UVChannel_1","UDP3DSMAX":"babylonjs_GUID = 9027e44a-ee21-48ea-9a19-3b0f9adfee83&cr;&lf;","MaxHandle":0}},{"mesh":1,"name":"Raccoon_Tail_low","extras":{"currentUVSet":"UVChannel_1","UDP3DSMAX":"babylonjs_GUID = 444c68c9-02ec-4963-aadc-fe4485821fff&cr;&lf;","MaxHandle":3}},{"mesh":2,"name":"Raccoon_Body_low","extras":{"currentUVSet":"UVChannel_1","UDP3DSMAX":"babylonjs_GUID = 994db4cb-5f45-4cc4-a134-2eb08cbbec88&cr;&lf;","MaxHandle":0}},{"mesh":3,"name":"Raccoon_Eye_low","extras":{"currentUVSet":"UVChannel_1","UDP3DSMAX":"babylonjs_GUID = 2937c092-e1dd-4640-af00-277b67020709&cr;&lf;","MaxHandle":0}},{"mesh":4,"name":"Raccoon_Pride_low","extras":{"currentUVSet":"UVChannel_1","UDP3DSMAX":"babylonjs_GUID = 9fa8436a-72d9-480b-9388-61b9af657113&cr;&lf;","MaxHandle":0}},{"name":"Default light"}],"meshes":[{"primitives":[{"attributes":{"POSITION":1,"TANGENT":2,"NORMAL":3,"COLOR_0":4,"TEXCOORD_0":5},"indices":0,"material":0}],"name":"Raccoon_head_low"},{"primitives":[{"attributes":{"POSITION":7,"TANGENT":8,"NORMAL":9,"COLOR_0":10,"TEXCOORD_0":11},"indices":6,"material":0}],"name":"Raccoon_Tail_low"},{"primitives":[{"attributes":{"POSITION":13,"TANGENT":14,"NORMAL":15,"COLOR_0":16,"TEXCOORD_0":17},"indices":12,"material":0}],"name":"Raccoon_Body_low"},{"primitives":[{"attributes":{"POSITION":19,"TANGENT":20,"NORMAL":21,"TEXCOORD_0":22},"indices":18,"material":1}],"name":"Raccoon_Eye_low"},{"primitives":[{"attributes":{"POSITION":24,"TANGENT":25,"NORMAL":26,"TEXCOORD_0":27},"indices":23,"material":2}],"name":"Raccoon_Pride_low"}],"accessors":[{"bufferView":0,"componentType":5123,"count":7944,"type":"SCALAR","name":"accessorIndices"},{"bufferView":1,"componentType":5126,"count":1461,"max":[0.191062734,0.6396047,0.222731471],"min":[-0.1411904,0.3734346,-0.110970877],"type":"VEC3","name":"accessorPositions"},{"bufferView":2,"componentType":5126,"count":1461,"type":"VEC4","name":"accessorTangents"},{"bufferView":1,"byteOffset":17532,"componentType":5126,"count":1461,"type":"VEC3","name":"accessorNormals"},{"bufferView":2,"byteOffset":23376,"componentType":5126,"count":1461,"type":"VEC4","name":"accessorColors"},{"bufferView":3,"componentType":5126,"count":1461,"type":"VEC2","name":"accessorUVs"},{"bufferView":0,"byteOffset":15888,"componentType":5123,"count":3018,"type":"SCALAR","name":"accessorIndices"},{"bufferView":1,"byteOffset":35064,"componentType":5126,"count":559,"max":[0.109375864,0.3048199,-0.07334778],"min":[-0.105788983,0.08790027,-0.5427164],"type":"VEC3","name":"accessorPositions"},{"bufferView":2,"byteOffset":46752,"componentType":5126,"count":559,"type":"VEC4","name":"accessorTangents"},{"bufferView":1,"byteOffset":41772,"componentType":5126,"count":559,"type":"VEC3","name":"accessorNormals"},{"bufferView":2,"byteOffset":55696,"componentType":5126,"count":559,"type":"VEC4","name":"accessorColors"},{"bufferView":3,"byteOffset":11688,"componentType":5126,"count":559,"type":"VEC2","name":"accessorUVs"},{"bufferView":0,"byteOffset":21924,"componentType":5123,"count":10380,"type":"SCALAR","name":"accessorIndices"},{"bufferView":1,"byteOffset":48480,"componentType":5126,"count":2003,"max":[0.220488861,0.5125338,0.14653106],"min":[-0.279195219,-0.00105087273,-0.0841057152],"type":"VEC3","name":"accessorPositions"},{"bufferView":2,"byteOffset":64640,"componentType":5126,"count":2003,"type":"VEC4","name":"accessorTangents"},{"bufferView":1,"byteOffset":72516,"componentType":5126,"count":2003,"type":"VEC3","name":"accessorNormals"},{"bufferView":2,"byteOffset":96688,"componentType":5126,"count":2003,"type":"VEC4","name":"accessorColors"},{"bufferView":3,"byteOffset":16160,"componentType":5126,"count":2003,"type":"VEC2","name":"accessorUVs"},{"bufferView":0,"byteOffset":42684,"componentType":5123,"count":1344,"type":"SCALAR","name":"accessorIndices"},{"bufferView":1,"byteOffset":96552,"componentType":5126,"count":228,"max":[0.09383263,0.5190004,0.127372429],"min":[-0.0870024338,0.472116649,0.08987163],"type":"VEC3","name":"accessorPositions"},{"bufferView":2,"byteOffset":128736,"componentType":5126,"count":228,"type":"VEC4","name":"accessorTangents"},{"bufferView":1,"byteOffset":99288,"componentType":5126,"count":228,"type":"VEC3","name":"accessorNormals"},{"bufferView":3,"byteOffset":32184,"componentType":5126,"count":228,"type":"VEC2","name":"accessorUVs"},{"bufferView":0,"byteOffset":45372,"componentType":5123,"count":5952,"type":"SCALAR","name":"accessorIndices"},{"bufferView":1,"byteOffset":102024,"componentType":5126,"count":1158,"max":[0.168689445,0.599736154,0.125191376],"min":[-0.1398199,0.462957025,-0.137016326],"type":"VEC3","name":"accessorPositions"},{"bufferView":2,"byteOffset":132384,"componentType":5126,"count":1158,"type":"VEC4","name":"accessorTangents"},{"bufferView":1,"byteOffset":115920,"componentType":5126,"count":1158,"type":"VEC3","name":"accessorNormals"},{"bufferView":3,"byteOffset":34008,"componentType":5126,"count":1158,"type":"VEC2","name":"accessorUVs"}],"bufferViews":[{"buffer":0,"byteLength":57276,"name":"bufferViewScalar"},{"buffer":0,"byteOffset":57276,"byteLength":129816,"byteStride":12,"name":"bufferViewFloatVec3"},{"buffer":0,"byteOffset":187092,"byteLength":150912,"byteStride":16,"name":"bufferViewFloatVec4"},{"buffer":0,"byteOffset":338004,"byteLength":43272,"byteStride":8,"name":"bufferViewFloatVec2"}],"buffers":[{"uri":"Raccoonzao_GLTF.bin","byteLength":381276}],"materials":[{"pbrMetallicRoughness":{"baseColorTexture":{"index":2},"metallicRoughnessTexture":{"index":1}},"normalTexture":{"index":0},"occlusionTexture":{"index":1},"name":"Body"},{"pbrMetallicRoughness":{"baseColorTexture":{"index":3},"metallicFactor":0.0,"roughnessFactor":0.121951222},"name":"Eyes"},{"pbrMetallicRoughness":{"baseColorTexture":{"index":4},"metallicFactor":0.0,"roughnessFactor":0.862195134},"name":"Bandana"}],"textures":[{"sampler":0,"source":0,"name":"RacconBodyMTL_normal_low.jpg"},{"sampler":0,"source":1,"name":"RacconBody_AO_R_M_LOW.png"},{"sampler":0,"source":2,"name":"RacconBodyMTL_baseColor_low.jpg"},{"sampler":0,"source":3,"name":"RaccoonEyesMTL_baseColor_low.jpg"},{"sampler":0,"source":4,"name":"rainbow.jpg"}],"images":[{"uri":"RacconBodyMTL_normal_low.jpg"},{"uri":"RacconBody_AO_R_M_LOW.png"},{"uri":"RacconBodyMTL_baseColor_low.jpg"},{"uri":"RaccoonEyesMTL_baseColor_low.jpg"},{"uri":"rainbow.jpg"}],"samplers":[{"magFilter":9729,"minFilter":9987}]}